# xmcd
#
# Track frame offsets: 
#        150
#        15637
#        32624
#        47286
#        60823
#        73160
#        86997
#        105409
#        121121
#        134958
#        149095
#        168857
#        184356
#        198343
#        214805
#        228717
#        243754
#        259091
#
# Disc length: 3681 seconds
#
# Revision: 2
# Processed by: cddbd v1.5.2PL0 Copyright (c) Steve Scherf et al.
# Submitted via: ExactAudioCopy v0.99pb4
#
DISCID=030e5f12
DTITLE=Various Artist - 201001 PO Country Radio
DYEAR=2010
DGENRE=Country
TTITLE0=Sugarland - Stuck Like Glue
TTITLE1=Luke Bryan - Someone Else Calling You Baby
TTITLE2=Gretchen Wilson - I Got Your Country Right Here @
TTITLE3=Matt Kennon - You Can Still Wear White
TTITLE4=Trailer Choir - Shakin' That Tailgate
TTITLE5=Thompson Square - Are You Gonna Kiss Me Or Not
TTITLE6=Brad Paisley - Anything Like Me
TTITLE7=Dierks Bentley - Draw Me A Map
TTITLE8=Emerson Drive - That Kind Of Beautiful
TTITLE9=Laura Bell Bundy - Drop On By
TTITLE10=Los Lobos - Burn It Down @
TTITLE11=Martin Ramey - Twisted
TTITLE12=Joanna Smith - Gettin' Married
TTITLE13=Flynnville Train - Preachin' To The Choir @
TTITLE14=Blaine Larsen - Leavin'
TTITLE15=Adam Brand - Ready For Love
TTITLE16=Clay Walker - Where Do I Go From You
TTITLE17=Gwyneth Paltrow - Country Strong
EXTD=Promo Only Country Radio - October 2010
EXTT0=
EXTT1=
EXTT2=
EXTT3=
EXTT4=
EXTT5=
EXTT6=
EXTT7=
EXTT8=
EXTT9=
EXTT10=
EXTT11=
EXTT12=
EXTT13=
EXTT14=
EXTT15=
EXTT16=
EXTT17=
PLAYORDER=
